<svg height="452pt" viewBox="-25 0 452 452.72076" width="452pt" xmlns="http://www.w3.org/2000/svg"><path d="m65.179688 22.355469c-1.945313 23.128906-26.046876 26.777343-26.046876 26.777343 20.691407.976563 25.851563 28.121094 25.851563 28.121094.441406-19.355468 26.640625-28.40625 26.640625-28.40625-19.628906-1.171875-26.445312-26.492187-26.445312-26.492187zm0 0" fill="#d7e057"/><path d="m91.800781 45.851562c-17.207031-1.027343-23.664062-24.046874-23.722656-24.277343-.382813-1.40625-1.699219-2.320313-3.167969-2.207031-1.449218.132812-2.59375 1.285156-2.71875 2.734374-1.71875 20.429688-22.625 23.925782-23.507812 24.066407-1.523438.230469-2.625 1.578125-2.546875 3.121093.082031 1.539063 1.316406 2.769532 2.855469 2.839844 18.054687.851563 23 25.4375 23.046874 25.6875.273438 1.421875 1.515626 2.433594 2.945313 2.433594.082031 0 .167969-.003906.25-.011719 1.527344-.128906 2.714844-1.386719 2.75-2.917969.386719-17.015624 24.382813-25.554687 24.625-25.636718 1.347656-.472656 2.183594-1.832032 1.988281-3.246094-.199218-1.417969-1.367187-2.5-2.796875-2.585938zm-27.128906 20.691407c-2.714844-6.257813-7.417969-13.8125-15.175781-17.75 5.863281-2.808594 12.820312-7.828125 16.40625-16.546875 3.101562 6.144531 8.398437 13.761718 16.667968 17.445312-6.015624 3.28125-13.847656 8.8125-17.898437 16.851563zm0 0" fill="#3a312a"/><path d="m21.78125 56.316406c-1.375 16.359375-18.421875 18.941406-18.421875 18.941406 14.636719.6875 18.28125 19.890626 18.28125 19.890626.3125-13.691407 18.847656-20.09375 18.847656-20.09375-13.882812-.828126-18.707031-18.738282-18.707031-18.738282zm0 0" fill="#d7e057"/><path d="m40.664062 72.0625c-11.53125-.691406-15.945312-16.371094-15.984374-16.53125-.382813-1.402344-1.710938-2.335938-3.164063-2.203125-1.453125.128906-2.597656 1.285156-2.722656 2.738281-1.15625 13.742188-15.289063 16.132813-15.882813 16.226563-1.527344.230469-2.625 1.578125-2.546875 3.121093.082031 1.539063 1.316407 2.765626 2.855469 2.839844 12.070312.570313 15.449219 17.289063 15.480469 17.453125.269531 1.421875 1.515625 2.441407 2.941406 2.441407.082031 0 .167969-.003907.25-.011719 1.53125-.125 2.71875-1.386719 2.753906-2.921875.261719-11.417969 16.660157-17.269532 16.824219-17.324219 1.355469-.46875 2.1875-1.824219 1.992188-3.242187-.199219-1.417969-1.367188-2.5-2.796876-2.585938zm-19.167968 13.589844c-1.847656-3.773438-4.679688-7.894532-8.894532-10.5625 3.710938-2.082032 7.394532-5.257813 9.742188-9.832032 2.113281 3.746094 5.308594 7.910157 9.882812 10.445313-3.699218 2.203125-7.976562 5.484375-10.730468 9.949219zm0 0" fill="#3a312a"/><path d="m21.78125 3.003906c-1.375 16.355469-18.421875 18.9375-18.421875 18.9375 14.636719.6875 18.28125 19.890625 18.28125 19.890625.3125-13.691406 18.847656-20.089843 18.847656-20.089843-13.882812-.832032-18.707031-18.738282-18.707031-18.738282zm0 0" fill="#d7e057"/><path d="m40.667969 18.746094c-11.535157-.6875-15.945313-16.371094-15.988281-16.53125-.382813-1.402344-1.710938-2.335938-3.164063-2.2031252-1.453125.1328122-2.597656 1.2851562-2.722656 2.7382812-1.15625 13.742188-15.289063 16.132812-15.882813 16.226562-1.527344.230469-2.625 1.582032-2.546875 3.121094.082031 1.542969 1.316407 2.769532 2.855469 2.84375 12.070312.566406 15.449219 17.289063 15.480469 17.453125.269531 1.421875 1.515625 2.4375 2.945312 2.4375.082031 0 .164063 0 .25-.007812 1.53125-.128907 2.714844-1.390625 2.75-2.921875.261719-11.417969 16.664063-17.269532 16.824219-17.324219 1.355469-.46875 2.191406-1.824219 1.992188-3.242187-.199219-1.421876-1.367188-2.503907-2.792969-2.589844zm-19.171875 13.589844c-1.847656-3.769532-4.679688-7.894532-8.894532-10.558594 3.710938-2.082032 7.394532-5.261719 9.742188-9.832032 2.113281 3.746094 5.308594 7.90625 9.882812 10.449219-3.699218 2.199219-7.976562 5.476563-10.730468 9.941407zm0 0" fill="#3a312a"/><path d="m373.703125 5.082031h-237.09375c-14.042969 0-25.429687 11.382813-25.429687 25.425781v265.46875h.011718v30.636719c-.003906 0-.007812 0-.011718 0v97.679688c0 14.042969 11.386718 25.429687 25.429687 25.429687h237.09375c14.046875 0 25.429687-11.386718 25.429687-25.429687v-393.785157c-.003906-14.042968-11.386718-25.425781-25.429687-25.425781zm0 0" fill="#d7e057"/><path d="m373.703125 2.082031h-237.09375c-15.675781 0-28.429687 12.753907-28.429687 28.425781v265.46875c0 1.722657 1.421874 3.105469 3.203124 2.992188 1.570313-.097656 2.8125-1.402344 2.8125-2.992188 0-.097656-.003906-.1875-.011718-.28125v-265.1875c0-12.367187 10.0625-22.425781 22.425781-22.425781h237.09375c12.371094 0 22.429687 10.0625 22.429687 22.425781v393.785157c0 12.367187-10.058593 22.429687-22.429687 22.429687h-237.09375c-12.367187 0-22.429687-10.0625-22.429687-22.429687v-97.480469c.003906-.066406.007812-.132812.007812-.199219 0-1.65625-1.347656-3-3.007812-3-1.65625 0-3 1.34375-3 3v97.679688c0 15.675781 12.753906 28.429687 28.429687 28.429687h237.09375c15.671875 0 28.425781-12.753906 28.425781-28.429687v-393.785157c0-15.675781-12.75-28.425781-28.425781-28.425781zm0 0" fill="#3a312a"/><path d="m355.363281 34.539062h-200.414062c-7.527344 0-13.625 6.101563-13.625 13.628907v327.84375c0 7.523437 6.097656 13.625 13.625 13.625h200.414062c7.523438 0 13.625-6.101563 13.625-13.625v-327.84375c0-7.523438-6.101562-13.628907-13.625-13.628907zm0 0" fill="#8ac6dd"/><path d="m355.363281 31.539062h-36.09375c-1.660156 0-3 1.34375-3 3 0 1.660157 1.339844 3 3 3h36.09375c5.859375 0 10.625 4.769532 10.625 10.628907v327.84375c0 5.859375-4.765625 10.625-10.625 10.625h-200.414062c-5.859375 0-10.625-4.765625-10.625-10.625v-327.84375c0-5.859375 4.765625-10.625 10.625-10.625h134.835937c1.65625 0 3-1.34375 3-3 0-1.660157-1.34375-3-3-3h-134.835937c-9.167969 0-16.625 7.457031-16.625 16.625v327.84375c0 9.167969 7.457031 16.628906 16.625 16.628906h200.414062c9.167969 0 16.625-7.460937 16.625-16.628906v-327.84375c0-9.167969-7.457031-16.628907-16.625-16.628907zm0 0" fill="#3a312a"/><path d="m255.15625 401.960938c-9.234375 0-16.71875 7.484374-16.71875 16.71875 0 9.234374 7.484375 16.722656 16.71875 16.722656s16.71875-7.488282 16.71875-16.722656c0-9.234376-7.484375-16.71875-16.71875-16.71875zm0 0" fill="#f16c7a"/><path d="m255.15625 398.960938c-10.871094 0-19.71875 8.847656-19.71875 19.71875 0 10.875 8.84375 19.722656 19.71875 19.722656s19.71875-8.847656 19.71875-19.722656c0-10.871094-8.84375-19.71875-19.71875-19.71875zm0 33.441406c-7.566406 0-13.71875-6.15625-13.71875-13.722656 0-7.5625 6.152344-13.71875 13.71875-13.71875s13.71875 6.152343 13.71875 13.71875c0 7.566406-6.15625 13.722656-13.71875 13.722656zm0 0" fill="#3a312a"/><path d="m355.363281 37.542969h-28c5.859375 0 10.621094 4.761719 10.621094 10.621093v327.859376c0 5.839843-4.761719 10.621093-10.621094 10.621093h28c5.859375 0 10.621094-4.78125 10.621094-10.621093v-327.859376c0-5.863281-4.761719-10.621093-10.621094-10.621093zm0 0" fill="#6ca8bf"/><path d="m229.023438 88.359375h-40.667969c-6.222657 0-11.265625 5.046875-11.265625 11.265625v40.667969c0 6.222656 5.042968 11.269531 11.265625 11.269531h40.667969c6.222656 0 11.265624-5.046875 11.265624-11.269531v-40.667969c0-6.21875-5.042968-11.265625-11.265624-11.265625zm0 0" fill="#f16c7a"/><path d="m229.023438 85.359375h-40.667969c-7.867188 0-14.265625 6.402344-14.265625 14.265625v40.667969c0 7.867187 6.398437 14.269531 14.265625 14.269531h40.667969c7.863281 0 14.265624-6.402344 14.265624-14.269531v-40.667969c0-7.863281-6.402343-14.265625-14.265624-14.265625zm8.265624 54.933594c0 4.558593-3.707031 8.269531-8.265624 8.269531h-40.667969c-4.558594 0-8.265625-3.710938-8.265625-8.269531v-40.667969c0-4.554688 3.707031-8.265625 8.265625-8.265625h40.667969c4.558593 0 8.265624 3.710937 8.265624 8.265625zm0 0" fill="#3a312a"/><path d="m323.464844 88.359375h-40.667969c-6.21875 0-11.265625 5.046875-11.265625 11.265625v40.667969c0 6.222656 5.046875 11.269531 11.265625 11.269531h40.667969c6.222656 0 11.269531-5.046875 11.269531-11.269531v-40.667969c0-6.21875-5.046875-11.265625-11.269531-11.265625zm0 0" fill="#fce8cb"/><path d="m323.464844 85.359375h-40.667969c-7.863281 0-14.265625 6.402344-14.265625 14.265625v40.667969c0 7.867187 6.402344 14.269531 14.265625 14.269531h40.667969c7.867187 0 14.269531-6.402344 14.269531-14.269531v-40.667969c0-7.863281-6.402344-14.265625-14.269531-14.265625zm8.269531 54.933594c0 4.558593-3.710937 8.269531-8.269531 8.269531h-40.667969c-4.554687 0-8.265625-3.710938-8.265625-8.269531v-40.667969c0-4.554688 3.710938-8.265625 8.265625-8.265625h40.667969c4.558594 0 8.269531 3.710937 8.269531 8.265625zm0 0" fill="#3a312a"/><path d="m229.023438 182.09375h-40.667969c-6.222657 0-11.265625 5.046875-11.265625 11.265625v40.667969c0 6.222656 5.042968 11.265625 11.265625 11.265625h40.667969c6.222656 0 11.265624-5.042969 11.265624-11.265625v-40.667969c0-6.21875-5.042968-11.265625-11.265624-11.265625zm0 0" fill="#fce8cb"/><path d="m229.023438 179.09375h-40.667969c-7.867188 0-14.265625 6.402344-14.265625 14.265625v40.667969c0 7.867187 6.398437 14.265625 14.265625 14.265625h40.667969c7.863281 0 14.265624-6.398438 14.265624-14.265625v-40.667969c0-7.863281-6.402343-14.265625-14.265624-14.265625zm8.265624 54.933594c0 4.558594-3.707031 8.265625-8.265624 8.265625h-40.667969c-4.558594 0-8.265625-3.707031-8.265625-8.265625v-40.667969c0-4.554687 3.707031-8.265625 8.265625-8.265625h40.667969c4.558593 0 8.265624 3.710938 8.265624 8.265625zm0 0" fill="#3a312a"/><path d="m323.464844 182.09375h-40.667969c-6.21875 0-11.265625 5.046875-11.265625 11.265625v40.667969c0 6.222656 5.046875 11.265625 11.265625 11.265625h40.667969c6.222656 0 11.269531-5.042969 11.269531-11.265625v-40.667969c0-6.21875-5.046875-11.265625-11.269531-11.265625zm0 0" fill="#f16c7a"/><path d="m323.464844 179.09375h-40.667969c-7.863281 0-14.265625 6.402344-14.265625 14.265625v40.667969c0 7.867187 6.402344 14.265625 14.265625 14.265625h40.667969c7.867187 0 14.269531-6.398438 14.269531-14.265625v-40.667969c0-7.863281-6.402344-14.265625-14.269531-14.265625zm8.269531 54.933594c0 4.558594-3.710937 8.265625-8.269531 8.265625h-40.667969c-4.554687 0-8.265625-3.707031-8.265625-8.265625v-40.667969c0-4.554687 3.710938-8.265625 8.265625-8.265625h40.667969c4.558594 0 8.269531 3.710938 8.269531 8.265625zm0 0" fill="#3a312a"/><path d="m229.023438 275.828125h-40.667969c-6.222657 0-11.265625 5.042969-11.265625 11.265625v40.667969c0 6.222656 5.042968 11.265625 11.265625 11.265625h40.667969c6.222656 0 11.265624-5.042969 11.265624-11.265625v-40.667969c0-6.222656-5.042968-11.265625-11.265624-11.265625zm0 0" fill="#f16c7a"/><path d="m229.023438 272.828125h-40.667969c-7.867188 0-14.265625 6.402344-14.265625 14.265625v40.667969c0 7.867187 6.398437 14.265625 14.265625 14.265625h40.667969c7.863281 0 14.265624-6.398438 14.265624-14.265625v-40.667969c0-7.863281-6.402343-14.265625-14.265624-14.265625zm8.265624 54.933594c0 4.558593-3.707031 8.265625-8.265624 8.265625h-40.667969c-4.558594 0-8.265625-3.707032-8.265625-8.265625v-40.667969c0-4.558594 3.707031-8.265625 8.265625-8.265625h40.667969c4.558593 0 8.265624 3.707031 8.265624 8.265625zm0 0" fill="#3a312a"/><path d="m323.464844 275.828125h-40.667969c-6.21875 0-11.265625 5.042969-11.265625 11.265625v40.667969c0 6.222656 5.046875 11.265625 11.265625 11.265625h40.667969c6.222656 0 11.269531-5.042969 11.269531-11.265625v-40.667969c0-6.222656-5.046875-11.265625-11.269531-11.265625zm0 0" fill="#fce8cb"/><path d="m323.464844 272.828125h-40.667969c-7.863281 0-14.265625 6.402344-14.265625 14.265625v40.667969c0 7.867187 6.402344 14.265625 14.265625 14.265625h40.667969c7.867187 0 14.269531-6.398438 14.269531-14.265625v-40.667969c0-7.863281-6.402344-14.265625-14.269531-14.265625zm8.269531 54.933594c0 4.558593-3.710937 8.265625-8.269531 8.265625h-40.667969c-4.554687 0-8.265625-3.707032-8.265625-8.265625v-40.667969c0-4.558594 3.710938-8.265625 8.265625-8.265625h40.667969c4.558594 0 8.269531 3.707031 8.269531 8.265625zm0 0" fill="#3a312a"/></svg>